HIERARCHY
ROOT Hips
{
  OFFSET -102.467 93.6631 130.069
  CHANNELS 6 Xposition Yposition Zposition Zrotation Xrotation Yrotation
  JOINT LeftUpLeg
  {
    OFFSET 8.64259 1.95398 -2.38835
    CHANNELS 3 Zrotation Xrotation Yrotation
    JOINT LeftLeg
    {
      OFFSET 43.7702 0 0
      CHANNELS 3 Zrotation Xrotation Yrotation
      JOINT LeftFoot
      {
        OFFSET 40.6238 0 0
        CHANNELS 3 Zrotation Xrotation Yrotation
        JOINT LeftToeBase
        {
          OFFSET 12.7242 0 0
          CHANNELS 3 Zrotation Xrotation Yrotation
          End Site
          {
            OFFSET 0 0 0
          }
        }
      }
    }
  }
  JOINT RightUpLeg
  {
    OFFSET -8.2249 1.95398 -2.59336
    CHANNELS 3 Zrotation Xrotation Yrotation
    JOINT RightLeg
    {
      OFFSET 43.5653 0 0
      CHANNELS 3 Zrotation Xrotation Yrotation
      JOINT RightFoot
      {
        OFFSET 40.6238 0 0
        CHANNELS 3 Zrotation Xrotation Yrotation
        JOINT RightToeBase
        {
          OFFSET 12.7242 0 0
          CHANNELS 3 Zrotation Xrotation Yrotation
          End Site
          {
            OFFSET 0 0 0
          }
        }
      }
    }
  }
  JOINT Spine
  {
    OFFSET 0.165834 0.87714 6.61349
    CHANNELS 3 Zrotation Xrotation Yrotation
    JOINT Spine1
    {
      OFFSET 7.38963 1.71661e-005 0
      CHANNELS 3 Zrotation Xrotation Yrotation
      JOINT Spine2
      {
        OFFSET 11.9445 1.14441e-005 0
        CHANNELS 3 Zrotation Xrotation Yrotation
        JOINT Spine3
        {
          OFFSET 14.7254 4.19617e-005 0
          CHANNELS 3 Zrotation Xrotation Yrotation
          JOINT Spine4
          {
            OFFSET 10.9679 0 0
            CHANNELS 3 Zrotation Xrotation Yrotation
            JOINT RightShoulder
            {
              OFFSET 2.46616 -1.6653 3.69651
              CHANNELS 3 Zrotation Xrotation Yrotation
              JOINT RightArm
              {
                OFFSET 13.0012 0 0
                CHANNELS 3 Zrotation Xrotation Yrotation
                JOINT RightForeArm
                {
                  OFFSET 28.7848 1.52588e-005 0
                  CHANNELS 3 Zrotation Xrotation Yrotation
                  JOINT RightHand
                  {
                    OFFSET 26.5688 1.52588e-005 0
                    CHANNELS 3 Zrotation Xrotation Yrotation
                    End Site
                    {
                      OFFSET 0 0 0
                    }
                  }
                }
              }
            }
            JOINT LeftShoulder
            {
              OFFSET 2.38034 -1.29275 -3.7523
              CHANNELS 3 Zrotation Xrotation Yrotation
              JOINT LeftArm
              {
                OFFSET 16.3182 6.10351e-005 0
                CHANNELS 3 Zrotation Xrotation Yrotation
                JOINT LeftForeArm
                {
                  OFFSET 27.0901 0 0
                  CHANNELS 3 Zrotation Xrotation Yrotation
                  JOINT LeftHand
                  {
                    OFFSET 24.5451 1.52588e-005 0
                    CHANNELS 3 Zrotation Xrotation Yrotation
                    End Site
                    {
                      OFFSET 0 0 0
                    }
                  }
                }
              }
            }
            JOINT Neck
            {
              OFFSET 5.0226 -0.0266342 0
              CHANNELS 3 Zrotation Xrotation Yrotation
              JOINT Head
              {
                OFFSET 6.69363 2.86102e-005 0
                CHANNELS 3 Zrotation Xrotation Yrotation
                End Site
                {
                  OFFSET 0 0 0
                }
              }
            }
          }
        }
      }
    }
  }
}
MOTION
Frames:	13
Frame Time:	0.0416667
-131.742 98.2907 -18.8615 117.786 -84.1958 119.176 -178.761 3.57493 86.4446 -17.9758 21.2401 3.06264 60.0474 6.96943 15.6945 36.5342 -1.07343 -1.26953 173.992 6.23792 87.0771 -23.323 1.12102 0.432798 62.2982 5.87625 12.3671 33.505 -0.461316 3.21468 -0.27364 7.36307 -90.5937 12.1427 -0.824766 -1.09357 0.471565 -0.872083 -1.05622 -22.0607 -0.457998 -1.29086 -2.04807 -0.458003 -1.29086 102.125 -56.2147 -82.231 21.0316 -4.48164 -5.46968 -2.97435 -7.15376 -17.0803 -13.337 -0.847926 2.26218 -86.9461 -48.349 82.79 -29.9045 10.2258 -13.6876 2.18016 31.5131 -9.44112 -2.75009 -0.0854157 -5.5221 4.02373 -0.521449 -15.0335 -17.4332 0.710399 12.0092 
-132.519 98.6428 -18.798 113.912 -83.3562 115.055 -178.153 2.56693 86.9649 -15.7854 22.4999 2.93755 59.6242 6.00427 14.4894 35.0819 -0.899977 -1.37912 174.103 4.62665 87.3783 -20.8517 3.99839 0.325758 62.9687 6.57538 14.2196 29.024 0.482135 3.2891 -0.374767 7.23287 -90.4453 12.4045 -0.956224 -0.779978 0.733662 -0.989615 -0.737149 -21.8012 -0.67761 -1.03129 -1.78858 -0.677613 -1.0313 102.806 -56.1628 -81.244 23.6448 -3.57847 -4.75211 -3.26705 -6.75299 -17.7956 -13.4286 -0.830167 2.05172 -85.8462 -47.8324 84.4067 -29.603 10.795 -15.7051 0.588274 32.6156 -6.95724 -1.22015 -0.103415 -5.65087 1.00813 -0.117805 -13.8518 -16.0869 0.774965 11.1234 
-133.101 98.8057 -18.6564 109.831 -84.3441 110.792 -177.925 2.01356 87.1483 -13.2598 21.8602 2.90307 59.3829 5.40379 13.6311 34.1767 -0.802954 -1.56538 174.506 4.31172 87.6271 -18.9316 4.89183 0.0377691 63.4439 7.09301 15.6872 26.0602 1.06973 3.13837 -0.252011 6.99172 -90.3454 12.8882 -0.665813 -0.609902 1.21725 -0.692014 -0.58001 -21.3175 -0.451747 -0.781805 -1.30483 -0.451739 -0.781803 102.762 -56.0168 -81.3056 25.6116 -2.76728 -2.93506 -3.69579 -6.68843 -19.0337 -13.7603 -0.835347 1.91538 -85.6545 -48.2836 84.7684 -29.3524 9.89304 -15.8757 1.14011 33.2577 -7.02962 -1.95679 -0.0954195 -5.68839 -0.14518 0.0826451 -10.918 -17.5087 0.624249 8.2298 
-133.599 98.9765 -18.5133 113.13 -85.3344 113.81 -177.194 0.794657 87.4337 -10.8073 21.0796 2.44536 59.4664 4.94168 12.4656 32.3717 -0.605924 -1.92671 174.955 3.59631 87.8371 -17.3121 4.17489 -0.390751 63.4167 7.06883 15.4406 24.5067 1.37243 3.01209 -0.151256 6.86988 -90.2483 13.1335 -0.419731 -0.44532 1.46259 -0.438923 -0.426421 -21.0722 -0.266494 -0.550878 -1.05959 -0.266494 -0.55088 102.386 -56.0934 -81.8528 26.5934 -3.27016 -2.01161 -3.87297 -7.3242 -19.2006 -13.8398 -0.810621 1.67156 -84.8358 -49.0537 86.132 -28.443 10.1064 -15.6764 1.82838 32.1957 -8.59501 -1.26598 -0.101414 -5.57264 -0.658433 0.55701 -10.2495 -17.9456 0.870454 8.69182 
-134.1 98.9881 -18.426 112.752 -86.1138 113.315 -176.426 0.551531 87.9727 -9.63148 20.8254 1.9329 59.6732 4.57681 11.8933 31.8471 -0.593475 -2.56172 175.293 3.514 88.1399 -16.5074 3.55674 -0.580486 63.5682 7.04206 15.0537 24.3577 1.45526 3.43297 -0.0887606 6.76673 -90.2005 13.3398 -0.272959 -0.366725 1.66881 -0.28884 -0.354362 -20.866 -0.150128 -0.431805 -0.853369 -0.150133 -0.431813 102.204 -55.8932 -82.1147 27.176 -4.21832 -2.25669 -3.54685 -7.74889 -18.171 -13.8881 -0.840111 1.89187 -84.6967 -49.7883 86.4369 -28.1493 9.7535 -15.1918 2.23733 30.0129 -9.44332 0.447836 -0.127312 -5.81262 -1.37068 0.513662 -10.6062 -16.3424 0.730342 10.5871 
-134.556 99.0046 -18.5472 114.661 -86.8546 115.305 -176.016 0.738141 88.4017 -9.40732 20.5547 1.73709 59.4605 4.25514 11.798 32.387 -0.686832 -2.74776 175.258 3.69857 88.3599 -16.3338 3.04349 -0.344736 64.0897 6.65439 14.8112 23.1026 1.76363 3.94984 -0.0505598 6.67057 -90.1757 13.5324 -0.185393 -0.327942 1.86139 -0.199647 -0.319467 -20.6735 -0.0782625 -0.368502 -0.660816 -0.0782717 -0.368507 101.81 -55.6407 -82.6898 27.4307 -5.58241 -2.52306 -3.42701 -9.07074 -16.7235 -12.5104 -0.776061 2.08858 -84.8464 -50.5837 86.3081 -27.7564 9.12296 -14.3879 2.62212 29.1377 -9.85987 2.21908 -0.144858 -5.72486 -1.27148 0.667539 -10.1504 -16.2909 0.813828 10.7899 
-134.922 99.0277 -18.8561 118.35 -86.7522 118.617 -176.419 0.686291 88.132 -9.34441 21.0057 1.92878 58.7558 4.08686 12.0097 32.8099 -0.633236 -1.62831 175.207 4.04487 88.1703 -16.9457 2.42273 -0.333268 63.891 6.76109 14.7074 23.48 1.54011 2.61336 -0.0640107 6.66464 -90.1411 13.5443 -0.195331 -0.257361 1.87335 -0.206464 -0.248523 -20.6616 -0.108962 -0.304168 -0.648997 -0.108951 -0.304167 101.741 -54.8422 -82.7947 28.247 -5.97722 -3.13777 -3.61508 -10.9188 -15.4131 -11.0756 -0.716043 2.42015 -85.3239 -51.4902 85.7104 -27.5234 8.43453 -14.1454 2.53108 28.662 -9.29961 2.1453 -0.159885 -6.16007 0.148353 0.77521 -9.15762 -17.861 0.835493 10.1316 
-135.212 99.0608 -19.1212 125.134 -86.4737 125.499 -176.505 0.682821 88.2747 -9.94991 20.8812 2.17688 58.5063 4.01616 12.0708 33.5966 -0.734927 -1.62145 175.153 3.76412 88.377 -17.048 2.36449 -0.190395 63.8082 6.63185 14.557 23.2342 1.58521 2.5618 -0.0813946 6.71556 -90.1309 13.4425 -0.224801 -0.233426 1.77152 -0.234853 -0.223316 -20.7635 -0.144258 -0.290193 -0.7509 -0.144252 -0.290196 101.229 -54.4974 -83.5535 28.8496 -6.28899 -3.07324 -3.45191 -10.4502 -15.2702 -10.3221 -0.646142 2.19306 -85.0753 -51.8264 86.1217 -27.3287 8.63685 -14.6434 1.929 29.0113 -8.43149 0.266662 -0.154827 -7.18249 1.77107 1.09145 -7.65104 -19.2484 1.18718 8.10997 
-135.512 99.0872 -19.2851 135.832 -86.3044 136.212 -176.393 0.244392 88.4345 -10.112 20.2202 2.277 58.6261 3.97118 11.5931 33.4048 -0.689525 -1.43495 175.088 3.32449 88.4736 -17.2296 2.14846 -0.133614 64.123 6.50627 14.6773 22.5069 1.7256 2.43753 -0.030355 6.77712 -90.1174 13.3195 -0.116878 -0.2202 1.64853 -0.126465 -0.214845 -20.8865 -0.0453026 -0.245148 -0.873831 -0.0453068 -0.245153 101.127 -54.4455 -83.7045 29.0501 -6.61706 -2.9417 -3.53937 -10.3603 -15.6655 -9.81859 -0.628049 2.36286 -85.2333 -51.7642 85.8798 -27.5959 8.18688 -15.1067 1.56065 30.5453 -7.21087 -0.777784 -0.132212 -7.13921 2.18758 1.24271 -6.37034 -19.087 1.37134 6.61261 
-135.795 99.055 -19.3642 136.368 -86.2659 136.566 -176.367 0.0704204 88.448 -9.7306 20.4448 2.23366 58.225 3.83714 11.8705 34.2828 -0.824152 -1.61715 175.253 3.48839 88.544 -17.5143 2.1002 -0.297993 63.911 6.71082 14.586 23.2485 1.56347 2.38608 -0.0209417 6.76617 -90.092 13.3415 -0.0859788 -0.173349 1.6705 -0.0935323 -0.169402 -20.8646 -0.0299161 -0.191181 -0.851922 -0.0299072 -0.191175 101.093 -54.4095 -83.7569 29.0593 -7.37872 -2.66163 -3.49429 -10.1476 -16.2583 -10.1866 -0.625614 2.0481 -85.3752 -51.6358 85.6517 -27.803 8.41826 -15.6865 -0.0441434 29.6247 -4.57562 3.29028 -0.168221 -5.94069 2.0342 0.837958 -5.68776 -18.6664 0.848638 6.84099 
-136.071 99.0671 -19.4771 133.899 -86.3303 134.285 -176.163 0.505821 88.8302 -10.1218 20.5336 2.2482 58.5889 3.87408 11.5403 33.6747 -0.767854 -1.82923 175.447 3.64603 88.9279 -17.458 2.41661 -0.307743 63.9593 6.73497 14.6903 22.7339 1.66772 2.34414 -0.0586124 6.72441 -90.1073 13.4249 -0.16819 -0.193455 1.75395 -0.176537 -0.185873 -20.7811 -0.102271 -0.235058 -0.768488 -0.102273 -0.235063 101.002 -54.6 -83.887 28.7802 -7.60543 -2.73964 -3.43022 -10.0197 -16.3576 -10.1208 -0.596496 1.74852 -85.0474 -51.3306 86.1012 -28.7559 7.39712 -16.1558 -1.04444 30.291 -1.66662 3.83978 -0.152477 -5.51123 2.00158 0.934255 -5.86417 -19.2052 0.82081 7.71167 
-136.293 99.0581 -19.6031 138.819 -86.2593 139.106 -176.202 0.231789 88.8388 -9.93619 20.2717 2.33131 58.4359 3.79128 11.5801 33.9418 -0.823991 -2.01629 175.417 3.63335 88.9396 -17.78 2.09712 -0.270541 64.0852 6.65706 14.6278 22.7386 1.62037 1.90204 -0.0452527 6.70699 -90.1096 13.4597 -0.14279 -0.201128 1.78875 -0.151496 -0.194657 -20.7463 -0.0757381 -0.234742 -0.733654 -0.0757406 -0.234747 101.058 -54.4306 -83.8074 28.977 -7.22427 -2.63755 -3.60281 -10.3332 -16.3133 -10.0465 -0.605728 1.91315 -85.1107 -51.3876 86.0137 -29.0996 6.87057 -16.1365 -1.61232 28.7959 -0.0355731 3.8664 -0.162217 -5.69191 1.44184 1.10098 -6.15284 -19.4821 0.848544 8.70531 
-136.504 99.103 -19.7405 147.862 -86.2481 148.169 -175.909 -0.3058 89.0361 -9.52442 20.1972 2.22332 58.3208 3.65693 11.3538 33.7415 -0.744089 -1.5337 175.371 3.40765 89.0012 -17.798 1.65759 -0.206868 64.1097 6.45239 14.5131 22.446 1.71363 2.19873 -0.00670003 6.7382 -90.1291 13.3973 -0.0756764 -0.248782 1.72638 -0.0865482 -0.245214 -20.8086 0.00259358 -0.260017 -0.795939 0.00259329 -0.260028 101.103 -54.2537 -83.7445 29.1892 -6.88953 -2.92545 -3.48808 -10.0521 -15.8838 -9.82606 -0.575128 1.7052 -84.9164 -51.4837 86.3149 -28.9926 7.00469 -16.3305 -1.7536 27.1012 0.00401088 3.97697 -0.135261 -5.17415 1.86421 1.33399 -5.11279 -20.3043 1.03432 7.60699 
